<?xml version="1.0" encoding="UTF-8"?>
<svg id="Layer_2" data-name="Layer 2" xmlns="http://www.w3.org/2000/svg" viewBox="0 0 104.06 104.06">
  <defs>
    <style>
      .cls-1 {
        fill: #1f1a50;
      }

      .cls-2 {
        fill: #5352a3;
      }

      .cls-3 {
        fill: #d9d8ed;
      }
    </style>
  </defs>
  <g id="Layer_2-2" data-name="Layer 2">
    <g>
      <path class="cls-1" d="M0,0h69.42c19.12,0,34.64,15.52,34.64,34.64v69.42H34.64C15.52,104.06,0,88.53,0,69.42V0h0Z"/>
      <path class="cls-2" d="M4.24,32.48c0-3.86,1.68-3.97,3.83,0s7.54,10.97,16.28,19.67c8.74,8.7,25.87,23.35,25.87,48.2h-13.79c-17.79,0-32.21-14.43-32.2-32.22v-35.65Z"/>
      <path class="cls-2" d="M54.24,32.48c0-3.86,1.68-3.97,3.83,0s7.54,10.97,16.28,19.67c8.74,8.7,25.87,23.35,25.87,48.2h-46.01l.02-67.87Z"/>
      <path class="cls-3" d="M100.01,71.88c0,3.86-1.68,3.97-3.83,0s-7.54-10.97-16.28-19.67c-8.74-8.7-25.87-23.35-25.87-48.2h13.79c17.79,0,32.21,14.43,32.2,32.22v35.65Z"/>
      <path class="cls-3" d="M50.02,71.88c0,3.86-1.68,3.97-3.83,0s-7.54-10.97-16.28-19.67C21.17,43.5,4.03,28.85,4.03,4.01h46.01s-.02,67.87-.02,67.87Z"/>
    </g>
  </g>
</svg>